<svg xmlns="http://www.w3.org/2000/svg" viewBox="0 0 32 32">
  <!-- Background circle -->
  <circle cx="16" cy="16" r="15" fill="#1a1a3e" stroke="#ffd700" stroke-width="2"/>

  <!-- Banana body - pixel art style -->
  <path d="M10 24 L12 8 L14 6 L16 5 L18 6 L19 8 L20 12 L21 18 L20 22 L18 25 L14 26 L10 24 Z" fill="#ffd93d"/>
  <path d="M12 8 L14 7 L16 6 L17 7 L18 10 L18 16 L17 20 L15 22 L12 22 L11 18 L12 12 Z" fill="#ffeb3b"/>

  <!-- Banana tip (green) -->
  <path d="M14 6 L15 4 L16 4 L17 5 L16 6 L15 6 Z" fill="#4caf50"/>

  <!-- Sunglasses -->
  <rect x="11" y="12" width="4" height="2" rx="0.5" fill="#222"/>
  <rect x="16" y="12" width="4" height="2" rx="0.5" fill="#222"/>
  <line x1="15" y1="13" x2="16" y2="13" stroke="#222" stroke-width="0.5"/>

  <!-- Smile -->
  <path d="M13 17 Q15 19 18 17" stroke="#222" stroke-width="0.8" fill="none" stroke-linecap="round"/>
</svg>
